<?xml version="1.0" encoding="UTF-8"?>
<svg width="80px" height="9px" viewBox="0 0 80 9" version="1.1" xmlns="http://www.w3.org/2000/svg" xmlns:xlink="http://www.w3.org/1999/xlink">
    <title>HUGOTEMPLATE</title>
    <g id="Naslovnica-revije-+-kazalo" stroke="none" stroke-width="1" fill="none" fill-rule="evenodd">
        <g id="t" transform="translate(-137.000000, -109.000000)" fill="#424242" fill-rule="nonzero">
            <path d="M138.271973,117 L138.271973,113.640625 L142.031738,113.640625 L142.031738,117 L142.861816,117 L142.861816,109.861328 L142.031738,109.861328 L142.031738,112.898438 L138.271973,112.898438 L138.271973,109.861328 L137.441895,109.861328 L137.441895,117 L138.271973,117 Z M147.446777,117.097656 C148.306152,117.097656 148.981608,116.864909 149.473145,116.399414 C149.964681,115.933919 150.210449,115.294271 150.210449,114.480469 L150.210449,114.480469 L150.210449,109.861328 L149.380371,109.861328 L149.380371,114.509766 C149.380371,115.108724 149.217611,115.568522 148.89209,115.88916 C148.566569,116.209798 148.102702,116.370117 147.500488,116.370117 C146.868978,116.370117 146.390462,116.210612 146.064941,115.891602 C145.739421,115.572591 145.57666,115.115234 145.57666,114.519531 L145.57666,114.519531 L145.57666,109.861328 L144.746582,109.861328 L144.746582,114.460938 C144.746582,115.28125 144.981771,115.925781 145.452148,116.394531 C145.922526,116.863281 146.587402,117.097656 147.446777,117.097656 Z M155.156738,117.097656 C155.671061,117.097656 156.123535,117.066732 156.51416,117.004883 C156.904785,116.943034 157.2889,116.851888 157.666504,116.731445 L157.666504,116.731445 L157.666504,113.259766 L155.239746,113.259766 L155.239746,114.001953 L156.836426,114.001953 L156.836426,116.199219 C156.364421,116.313151 155.881022,116.370117 155.38623,116.370117 C154.474772,116.370117 153.783854,116.121094 153.313477,115.623047 C152.843099,115.125 152.60791,114.394206 152.60791,113.430664 C152.60791,112.512695 152.852051,111.794922 153.340332,111.277344 C153.828613,110.759766 154.507324,110.500977 155.376465,110.500977 C155.972168,110.500977 156.592285,110.637695 157.236816,110.911133 L157.236816,110.911133 L157.559082,110.178711 C156.90153,109.898763 156.191895,109.758789 155.430176,109.758789 C154.678223,109.758789 154.022298,109.906087 153.462402,110.200684 C152.902507,110.49528 152.473633,110.921712 152.175781,111.47998 C151.87793,112.038249 151.729004,112.688477 151.729004,113.430664 C151.729004,114.589518 152.030111,115.490397 152.632324,116.133301 C153.234538,116.776204 154.076009,117.097656 155.156738,117.097656 Z M162.300293,117.097656 C163.328939,117.097656 164.132161,116.770508 164.709961,116.116211 C165.28776,115.461914 165.57666,114.563477 165.57666,113.420898 C165.57666,112.275065 165.288574,111.376628 164.712402,110.725586 C164.13623,110.074544 163.335449,109.749023 162.310059,109.749023 C161.255371,109.749023 160.441569,110.068848 159.868652,110.708496 C159.295736,111.348145 159.009277,112.249023 159.009277,113.411133 C159.009277,114.583008 159.294922,115.490397 159.866211,116.133301 C160.4375,116.776204 161.248861,117.097656 162.300293,117.097656 Z M162.300293,116.370117 C161.515788,116.370117 160.917643,116.12028 160.505859,115.620605 C160.094076,115.120931 159.888184,114.387695 159.888184,113.420898 C159.888184,112.467122 160.094076,111.740397 160.505859,111.240723 C160.917643,110.741048 161.519043,110.491211 162.310059,110.491211 C163.097819,110.491211 163.692708,110.739421 164.094727,111.23584 C164.496745,111.732259 164.697754,112.460612 164.697754,113.420898 C164.697754,114.390951 164.495931,115.125 164.092285,115.623047 C163.688639,116.121094 163.091309,116.370117 162.300293,116.370117 Z M171.963379,117 L171.963379,110.598633 L174.224121,110.598633 L174.224121,109.861328 L168.872559,109.861328 L168.872559,110.598633 L171.133301,110.598633 L171.133301,117 L171.963379,117 Z M179.277832,117 L179.277832,116.257812 L176.128418,116.257812 L176.128418,113.630859 L179.087402,113.630859 L179.087402,112.898438 L176.128418,112.898438 L176.128418,110.598633 L179.277832,110.598633 L179.277832,109.861328 L175.29834,109.861328 L175.29834,117 L179.277832,117 Z M181.626465,117 L181.626465,112.458984 C181.626465,111.76888 181.603678,111.173177 181.558105,110.671875 L181.558105,110.671875 L181.597168,110.671875 L184.019043,117 L184.687988,117 L187.129395,110.681641 L187.168457,110.681641 C187.122884,111.30013 187.100098,111.873047 187.100098,112.400391 L187.100098,112.400391 L187.100098,117 L187.930176,117 L187.930176,109.861328 L186.689941,109.861328 L184.409668,115.75 L184.370605,115.75 L182.109863,109.861328 L180.859863,109.861328 L180.859863,117 L181.626465,117 Z M190.718262,117 L190.718262,114.192383 L191.558105,114.192383 C192.476074,114.192383 193.181641,113.997884 193.674805,113.608887 C194.167969,113.219889 194.414551,112.664062 194.414551,111.941406 C194.414551,110.554688 193.522624,109.861328 191.73877,109.861328 L191.73877,109.861328 L189.888184,109.861328 L189.888184,117 L190.718262,117 Z M191.465332,113.479492 L190.718262,113.479492 L190.718262,110.579102 L191.645996,110.579102 C192.300293,110.579102 192.782064,110.694661 193.091309,110.925781 C193.400553,111.156901 193.555176,111.508464 193.555176,111.980469 C193.555176,112.504557 193.390788,112.885417 193.062012,113.123047 C192.733236,113.360677 192.201009,113.479492 191.465332,113.479492 L191.465332,113.479492 Z M199.888184,117 L199.888184,116.248047 L196.73877,116.248047 L196.73877,109.861328 L195.908691,109.861328 L195.908691,117 L199.888184,117 Z M200.95752,117 L201.836426,114.729492 L204.697754,114.729492 L205.586426,117 L206.445801,117 L203.638184,109.832031 L202.939941,109.832031 L200.117676,117 L200.95752,117 Z M204.438965,113.982422 L202.129395,113.982422 L202.969238,111.770508 C203.102702,111.396159 203.205241,111.052734 203.276855,110.740234 C203.390788,111.147135 203.501465,111.49056 203.608887,111.770508 L203.608887,111.770508 L204.438965,113.982422 Z M209.624512,117 L209.624512,110.598633 L211.885254,110.598633 L211.885254,109.861328 L206.533691,109.861328 L206.533691,110.598633 L208.794434,110.598633 L208.794434,117 L209.624512,117 Z M216.938965,117 L216.938965,116.257812 L213.789551,116.257812 L213.789551,113.630859 L216.748535,113.630859 L216.748535,112.898438 L213.789551,112.898438 L213.789551,110.598633 L216.938965,110.598633 L216.938965,109.861328 L212.959473,109.861328 L212.959473,117 L216.938965,117 Z" id="HUGOTEMPLATE"></path>
        </g>
    </g>
</svg>